Coordinates
version=1
nRows=24
nColumns=24
inDegrees=yes

Units are S.I. units (second, meters, Newtons, ...)
Angles are in degrees.

endheader
time	pelvis_tilt	pelvis_list	pelvis_rotation	pelvis_tx	pelvis_ty	pelvis_tz	hip_flexion_r	hip_adduction_r	hip_rotation_r	knee_angle_r	ankle_angle_r	subtalar_angle_r	mtp_angle_r	hip_flexion_l	hip_adduction_l	hip_rotation_l	knee_angle_l	ankle_angle_l	subtalar_angle_l	mtp_angle_l	lumbar_extension	lumbar_bending	lumbar_rotation
      3.26500000	     -9.92737731	      3.25162730	     -5.74726484	     -1.18927229	     -0.04518343	      0.68306250	     -7.90703831	     -5.36181696	      6.23485012	    -12.05393249	     11.62777391	      3.60755828	     11.39583564	     41.16451505	     -1.30567523	     -4.81647293	    -24.08911388	      4.92429010	      4.13335272	     -7.59370654	      5.12993683	      0.24334739	      7.29456384
      3.27000000	    -10.09818854	      3.54933452	     -6.07401971	     -1.18052401	     -0.04658032	      0.68352628	     -7.79848087	     -5.73791043	      6.47486264	    -12.75507103	     11.40606261	      3.87635683	     11.59751028	     41.14164803	     -1.22088660	     -5.05726360	    -24.12745109	      4.75597943	      4.00760192	     -7.46416109	      5.46350233	     -0.20833500	      7.55141318
      3.27500000	    -10.12808922	      3.87391545	     -6.39181162	     -1.17172622	     -0.04786752	      0.68386339	     -7.74429852	     -6.21040299	      6.18447767	    -13.57274680	     11.14302084	      4.73471991	     12.75753815	     40.98246399	     -1.09669703	     -5.48878423	    -24.27759055	      4.32000184	      3.82880691	     -6.44719939	      5.65193872	     -0.69244050	      7.74650933
      3.28000000	    -10.32309091	      4.16720205	     -6.74151035	     -1.16288723	     -0.04922155	      0.68428987	     -7.47971689	     -6.57925294	      6.50884071	    -14.47352602	     10.74776314	      4.98257319	     13.10014230	     41.00193773	     -1.01009826	     -5.75108971	    -24.57046733	      3.95425225	      3.49472474	     -6.16869106	      6.03400943	     -1.13171140	      8.01560081
      3.28500000	    -10.43515868	      4.46526630	     -6.88662501	     -1.15404863	     -0.05053971	      0.68440480	     -7.26140565	     -6.98654434	      6.19356526	    -15.41213371	     10.04612615	      5.42998630	     15.28155246	     40.97934068	     -0.78344065	     -5.98009243	    -24.89279141	      2.66446730	      2.97788965	     -3.31521451	      6.30948584	     -1.61033040	      8.04301202
      3.29000000	    -10.61869144	      4.75932241	     -7.19257616	     -1.14527845	     -0.05185553	      0.68475710	     -6.82972239	     -7.35488305	      6.39669684	    -16.61964697	      9.62210818	      5.91151684	     15.47620686	     41.09806556	     -0.68575873	     -6.30372425	    -25.52495699	      2.28240687	      2.79886545	     -2.99491213	      6.67052142	     -2.05320660	      8.25109342
      3.29500000	    -10.76943676	      5.04407670	     -7.27028274	     -1.13657395	     -0.05312059	      0.68480690	     -6.40856740	     -7.72446051	      6.14210534	    -17.83994033	      8.81854415	      6.36461971	     17.32224914	     41.22343795	     -0.42696027	     -6.37129829	    -26.09947142	      0.74271322	      2.18862371	      0.39087747	      6.96579352	     -2.53142423	      8.19488372
      3.30000000	    -11.01979957	      5.38948385	     -7.34748143	     -1.12786410	     -0.05445373	      0.68480650	     -5.75329013	     -8.14525575	      5.95323448	    -19.32525246	      8.24290019	      7.09009451	     17.77137212	     41.55241980	     -0.10994955	     -6.36254545	    -26.97035922	      0.19075932	      1.84240694	      0.94808944	      7.38540498	     -3.05234220	      8.17777183
      3.30500000	    -11.19676978	      5.78641532	     -7.31036721	     -1.11914037	     -0.05561024	      0.68471592	     -5.15609233	     -8.61409023	      5.72563423	    -20.79009501	      7.21011836	      7.42846502	     19.45478478	     41.83034109	      0.36785482	     -6.14001817	    -27.83197671	     -0.62780189	      1.27060470	      2.27495770	      7.72286215	     -3.66982189	      8.03291859
      3.31000000	    -11.42175502	      6.19804546	     -7.28027628	     -1.11053790	     -0.05679917	      0.68456498	     -4.37112183	     -9.10282351	      5.52492009	    -22.50066395	      6.31656712	      8.09634326	     20.16519311	     42.24685336	      0.85728720	     -5.92413970	    -28.86518709	     -0.96940378	      0.72998894	      2.36586418	      8.09787160	     -4.28493552	      7.89541864
      3.31500000	    -11.60352745	      6.64862536	     -7.10544196	     -1.10181547	     -0.05790254	      0.68427748	     -3.63234635	     -9.63581387	      5.18963867	    -24.17150952	      4.95544587	      8.43413811	     22.15937788	     42.64721455	      1.50885876	     -5.56353914	    -29.94187848	     -1.01020998	      0.14324664	      1.67465672	      8.43286561	     -4.98194663	      7.58926521
      3.32000000	    -11.71772891	      7.06587251	     -6.95734589	     -1.09322536	     -0.05887026	      0.68386808	     -2.87636025	    -10.15337913	      4.93866826	    -25.92634871	      3.34852836	      8.75194319	     24.35054344	     43.00321182	      2.17142249	     -5.17141490	    -31.08839481	     -0.52017204	     -0.62427144	     -0.87781285	      8.66304888	     -5.62525480	      7.33303585
      3.32500000	    -11.80875052	      7.55289762	     -6.78631482	     -1.08450677	     -0.05980995	      0.68340635	     -2.08636137	    -10.75924868	      4.67016730	    -27.75055431	      1.58641851	      9.07337455	     26.44839262	     43.31209636	      2.94170125	     -4.77402390	    -32.22914351	      0.62695946	     -1.35563254	     -5.46753068	      8.89337672	     -6.34388353	      7.11340371
      3.33000000	    -11.85174000	      8.07482567	     -6.65128807	     -1.07581615	     -0.06071384	      0.68299146	     -1.26304738	    -11.40011908	      4.53015526	    -29.68791594	     -0.18946733	      9.50157945	     27.82675510	     43.55718152	      3.72575935	     -4.53547638	    -33.36066277	      2.46269806	     -2.12173473	    -12.48829768	      9.07316235	     -7.09508301	      6.88566702
      3.33500000	    -11.85987929	      8.50531735	     -6.33752761	     -1.06710522	     -0.06153737	      0.68228622	     -0.52669149	    -11.95933997	      4.19996301	    -31.53136194	     -2.38472665	      9.71515577	     29.92622707	     43.69713048	      4.59824965	     -4.02961567	    -34.35671443	      4.40673419	     -3.03004919	    -20.22032984	      9.16771929	     -7.77825513	      6.45536617
      3.34000000	    -11.83534858	      8.89052344	     -6.15166698	     -1.05847515	     -0.06225943	      0.68198377	      0.24817293	    -12.42800236	      4.10224280	    -33.33603412	     -4.98935487	      9.54695474	     32.81476007	     43.69215950	      5.26191483	     -3.82043528	    -35.06890654	      4.89155367	     -4.07491717	    -23.05733036	      9.23748527	     -8.40998331	      6.16357492
      3.34500000	    -11.80975055	      9.28998517	     -5.79796011	     -1.04980725	     -0.06296035	      0.68112728	      1.00572708	    -12.96037378	      3.81605599	    -35.18018219	     -7.50788104	      9.71819222	     34.56009788	     43.64122588	      6.17693085	     -3.20119257	    -35.83063530	      7.60404436	     -4.85151213	    -32.94275204	      9.27348036	     -9.03961043	      5.71986678
      3.35000000	    -11.75827495	      9.63905962	     -5.63985260	     -1.04132215	     -0.06352763	      0.68078631	      1.83220969	    -13.37681776	      3.84499865	    -36.98555578	    -10.30201446	      9.59773362	     36.73720281	     43.45581402	      6.80399004	     -3.00647186	    -36.30726909	      7.60605293	     -5.73343246	    -33.33767150	      9.28315709	     -9.60941312	      5.49104069
      3.35500000	    -11.72096514	      9.91830099	     -5.30777262	     -1.03277802	     -0.06405498	      0.68016609	      2.61456662	    -13.73992176	      3.62028478	    -38.71045992	    -13.28522815	      9.27148276	     38.98828593	     43.22483057	      7.50138699	     -2.63562611	    -36.75850865	      7.80188143	     -6.37377903	    -33.57324933	      9.27850113	    -10.12099224	      5.06806179
      3.36000000	    -11.60217257	     10.13995973	     -5.07925057	     -1.02440170	     -0.06433143	      0.67969611	      3.36043545	    -14.01474107	      3.53339135	    -40.37354446	    -16.44397230	      8.68417965	     41.33292162	     42.85439419	      8.07298012	     -2.36512612	    -37.16225652	      8.14308117	     -6.82537878	    -33.59564865	      9.16971513	    -10.55358826	      4.72197876
      3.36500000	    -11.53146326	     10.35343044	     -4.81077605	     -1.01608605	     -0.06455540	      0.67908441	      4.17840538	    -14.29181730	      3.37961461	    -42.02774582	    -19.56045113	      8.05480678	     43.40030522	     42.48628866	      8.66869942	     -2.04443147	    -37.50562363	      8.50016782	     -7.24785483	    -33.45295973	      9.10347251	    -10.95736843	      4.35205802
      3.37000000	    -11.45940084	     10.55098700	     -4.57214554	     -1.00786437	     -0.06465054	      0.67849722	      5.03763478	    -14.54753356	      3.22736856	    -43.67442670	    -22.63374675	      7.21707341	     45.23208532	     42.07474341	      9.22091241	     -1.75840864	    -37.79666692	      8.92033854	     -7.60768143	    -33.27031100	      9.03347189	    -11.32901677	      4.01469070
      3.37500000	    -11.41364868	     10.76116840	     -4.33958690	     -0.99969703	     -0.06467164	      0.67786995	      5.96522480	    -14.82686461	      3.04037300	    -45.33517032	    -25.55645054	      6.20607331	     46.76981883	     41.65318016	      9.77627399	     -1.47498723	    -38.03448255	      9.39407009	     -7.93630391	    -33.16496859	      8.99801147	    -11.69097620	      3.71530509
      3.38000000	    -11.38546202	     10.99103280	     -4.12230562	     -0.99156407	     -0.06461207	      0.67721371	      6.95451476	    -15.13899039	      2.83306081	    -47.02244372	    -28.25406073	      5.00066057	     47.93557645	     41.21420276	     10.33507186	     -1.21084346	    -38.21828453	      9.93332187	     -8.21105487	    -33.16480293	      8.99341038	    -12.05191123	      3.45740722
